<svg aria-roledescription="er" role="graphics-document document" viewBox="0 0 461.984375 950" style="max-width: 461.984375px;" xmlns="http://www.w3.org/2000/svg" width="100%" id="mermaidSvgChart"><style>#mermaidSvgChart{font-family:"trebuchet ms",verdana,arial,sans-serif;font-size:16px;fill:#ccc;}#mermaidSvgChart .error-icon{fill:#a44141;}#mermaidSvgChart .error-text{fill:#ddd;stroke:#ddd;}#mermaidSvgChart .edge-thickness-normal{stroke-width:2px;}#mermaidSvgChart .edge-thickness-thick{stroke-width:3.5px;}#mermaidSvgChart .edge-pattern-solid{stroke-dasharray:0;}#mermaidSvgChart .edge-pattern-dashed{stroke-dasharray:3;}#mermaidSvgChart .edge-pattern-dotted{stroke-dasharray:2;}#mermaidSvgChart .marker{fill:lightgrey;stroke:lightgrey;}#mermaidSvgChart .marker.cross{stroke:lightgrey;}#mermaidSvgChart svg{font-family:"trebuchet ms",verdana,arial,sans-serif;font-size:16px;}#mermaidSvgChart .entityBox{fill:#1f2020;stroke:#81B1DB;}#mermaidSvgChart .attributeBoxOdd{fill:hsl(0, 0%, 32%);stroke:#81B1DB;}#mermaidSvgChart .attributeBoxEven{fill:hsl(0, 0%, 22%);stroke:#81B1DB;}#mermaidSvgChart .relationshipLabelBox{fill:hsl(20, 1.5873015873%, 12.3529411765%);opacity:0.7;background-color:hsl(20, 1.5873015873%, 12.3529411765%);}#mermaidSvgChart .relationshipLabelBox rect{opacity:0.5;}#mermaidSvgChart .relationshipLine{stroke:lightgrey;}#mermaidSvgChart .entityTitleText{text-anchor:middle;font-size:18px;fill:#ccc;}#mermaidSvgChart :root{--mermaid-font-family:"trebuchet ms",verdana,arial,sans-serif;}</style><g></g><defs><marker orient="auto" markerHeight="18" markerWidth="18" refY="9" refX="0" id="ONLY_ONE_START"><path d="M9,0 L9,18 M15,0 L15,18" fill="none" stroke="gray"></path></marker></defs><defs><marker orient="auto" markerHeight="18" markerWidth="18" refY="9" refX="18" id="ONLY_ONE_END"><path d="M3,0 L3,18 M9,0 L9,18" fill="none" stroke="gray"></path></marker></defs><defs><marker orient="auto" markerHeight="18" markerWidth="30" refY="9" refX="0" id="ZERO_OR_ONE_START"><circle r="6" cy="9" cx="21" fill="white" stroke="gray"></circle><path d="M9,0 L9,18" fill="none" stroke="gray"></path></marker></defs><defs><marker orient="auto" markerHeight="18" markerWidth="30" refY="9" refX="30" id="ZERO_OR_ONE_END"><circle r="6" cy="9" cx="9" fill="white" stroke="gray"></circle><path d="M21,0 L21,18" fill="none" stroke="gray"></path></marker></defs><defs><marker orient="auto" markerHeight="36" markerWidth="45" refY="18" refX="18" id="ONE_OR_MORE_START"><path d="M0,18 Q 18,0 36,18 Q 18,36 0,18 M42,9 L42,27" fill="none" stroke="gray"></path></marker></defs><defs><marker orient="auto" markerHeight="36" markerWidth="45" refY="18" refX="27" id="ONE_OR_MORE_END"><path d="M3,9 L3,27 M9,18 Q27,0 45,18 Q27,36 9,18" fill="none" stroke="gray"></path></marker></defs><defs><marker orient="auto" markerHeight="36" markerWidth="57" refY="18" refX="18" id="ZERO_OR_MORE_START"><circle r="6" cy="18" cx="48" fill="white" stroke="gray"></circle><path d="M0,18 Q18,0 36,18 Q18,36 0,18" fill="none" stroke="gray"></path></marker></defs><defs><marker orient="auto" markerHeight="36" markerWidth="57" refY="18" refX="39" id="ZERO_OR_MORE_END"><circle r="6" cy="18" cx="9" fill="white" stroke="gray"></circle><path d="M21,18 Q39,0 57,18 Q39,36 21,18" fill="none" stroke="gray"></path></marker></defs><path style="stroke: gray; fill: none;" marker-start="url(#ZERO_OR_ONE_START)" marker-end="url(#ONE_OR_MORE_END)" d="M353.262,674L353.262,682.333C353.262,690.667,353.262,707.333,353.262,724C353.262,740.667,353.262,757.333,353.262,765.667L353.262,774" class="er relationshipLine"></path><path style="stroke: gray; fill: none;" marker-start="url(#ZERO_OR_ONE_START)" marker-end="url(#ONE_OR_MORE_END)" d="M299,190.202L308.044,199.835C317.087,209.468,335.174,228.734,344.218,246.7C353.262,264.667,353.262,281.333,353.262,289.667L353.262,298" class="er relationshipLine"></path><path style="stroke: gray; fill: none;" marker-start="url(#ZERO_OR_ONE_START)" marker-end="url(#ONE_OR_MORE_END)" d="M146.531,190.202L137.488,199.835C128.444,209.468,110.357,228.734,101.313,263.2C92.27,297.667,92.27,347.333,92.27,372.167L92.27,397" class="er relationshipLine"></path><g transform="translate(267.375,774 )" id="entity-dboneighborhoods-d1faf266-4f56-5ac1-9656-6925b9344737"><rect height="156" width="171.7734375" y="0" x="0" class="er entityBox"></rect><text style="dominant-baseline: middle; text-anchor: middle; font-size: 12px;" transform="translate(85.88671875,12)" y="0" x="0" id="text-entity-dboneighborhoods-d1faf266-4f56-5ac1-9656-6925b9344737" class="er entityLabel">dbo.neighborhoods</text><rect height="22" width="62.15625" y="24" x="0" class="er attributeBoxOdd"></rect><text style="dominant-baseline: middle; font-size: 10.2px;" transform="translate(5,35)" y="0" x="0" id="text-entity-dboneighborhoods-d1faf266-4f56-5ac1-9656-6925b9344737-attr-1-type" class="er entityLabel">varchar(10)</text><rect height="22" width="86.0078125" y="24" x="62.15625" class="er attributeBoxOdd"></rect><text style="dominant-baseline: middle; font-size: 10.2px;" transform="translate(67.15625,35)" y="0" x="0" id="text-entity-dboneighborhoods-d1faf266-4f56-5ac1-9656-6925b9344737-attr-1-name" class="er entityLabel">neighborhood_id</text><rect height="22" width="23.609375" y="24" x="148.1640625" class="er attributeBoxOdd"></rect><text style="dominant-baseline: middle; font-size: 10.2px;" transform="translate(153.1640625,35)" y="0" x="0" id="text-entity-dboneighborhoods-d1faf266-4f56-5ac1-9656-6925b9344737-attr-1-comment" class="er entityLabel">PK</text><rect height="22" width="62.15625" y="46" x="0" class="er attributeBoxEven"></rect><text style="dominant-baseline: middle; font-size: 10.2px;" transform="translate(5,57)" y="0" x="0" id="text-entity-dboneighborhoods-d1faf266-4f56-5ac1-9656-6925b9344737-attr-2-type" class="er entityLabel">varchar(50)</text><rect height="22" width="86.0078125" y="46" x="62.15625" class="er attributeBoxEven"></rect><text style="dominant-baseline: middle; font-size: 10.2px;" transform="translate(67.15625,57)" y="0" x="0" id="text-entity-dboneighborhoods-d1faf266-4f56-5ac1-9656-6925b9344737-attr-2-name" class="er entityLabel">name</text><rect height="22" width="23.609375" y="46" x="148.1640625" class="er attributeBoxEven"></rect><text style="dominant-baseline: middle; font-size: 10.2px;" transform="translate(153.1640625,57)" y="0" x="0" id="text-entity-dboneighborhoods-d1faf266-4f56-5ac1-9656-6925b9344737-attr-2-comment" class="er entityLabel"></text><rect height="22" width="62.15625" y="68" x="0" class="er attributeBoxOdd"></rect><text style="dominant-baseline: middle; font-size: 10.2px;" transform="translate(5,79)" y="0" x="0" id="text-entity-dboneighborhoods-d1faf266-4f56-5ac1-9656-6925b9344737-attr-3-type" class="er entityLabel">varchar(50)</text><rect height="22" width="86.0078125" y="68" x="62.15625" class="er attributeBoxOdd"></rect><text style="dominant-baseline: middle; font-size: 10.2px;" transform="translate(67.15625,79)" y="0" x="0" id="text-entity-dboneighborhoods-d1faf266-4f56-5ac1-9656-6925b9344737-attr-3-name" class="er entityLabel">city</text><rect height="22" width="23.609375" y="68" x="148.1640625" class="er attributeBoxOdd"></rect><text style="dominant-baseline: middle; font-size: 10.2px;" transform="translate(153.1640625,79)" y="0" x="0" id="text-entity-dboneighborhoods-d1faf266-4f56-5ac1-9656-6925b9344737-attr-3-comment" class="er entityLabel"></text><rect height="22" width="62.15625" y="90" x="0" class="er attributeBoxEven"></rect><text style="dominant-baseline: middle; font-size: 10.2px;" transform="translate(5,101)" y="0" x="0" id="text-entity-dboneighborhoods-d1faf266-4f56-5ac1-9656-6925b9344737-attr-4-type" class="er entityLabel">decimal</text><rect height="22" width="86.0078125" y="90" x="62.15625" class="er attributeBoxEven"></rect><text style="dominant-baseline: middle; font-size: 10.2px;" transform="translate(67.15625,101)" y="0" x="0" id="text-entity-dboneighborhoods-d1faf266-4f56-5ac1-9656-6925b9344737-attr-4-name" class="er entityLabel">avg_income</text><rect height="22" width="23.609375" y="90" x="148.1640625" class="er attributeBoxEven"></rect><text style="dominant-baseline: middle; font-size: 10.2px;" transform="translate(153.1640625,101)" y="0" x="0" id="text-entity-dboneighborhoods-d1faf266-4f56-5ac1-9656-6925b9344737-attr-4-comment" class="er entityLabel"></text><rect height="22" width="62.15625" y="112" x="0" class="er attributeBoxOdd"></rect><text style="dominant-baseline: middle; font-size: 10.2px;" transform="translate(5,123)" y="0" x="0" id="text-entity-dboneighborhoods-d1faf266-4f56-5ac1-9656-6925b9344737-attr-5-type" class="er entityLabel">decimal</text><rect height="22" width="86.0078125" y="112" x="62.15625" class="er attributeBoxOdd"></rect><text style="dominant-baseline: middle; font-size: 10.2px;" transform="translate(67.15625,123)" y="0" x="0" id="text-entity-dboneighborhoods-d1faf266-4f56-5ac1-9656-6925b9344737-attr-5-name" class="er entityLabel">school_rating</text><rect height="22" width="23.609375" y="112" x="148.1640625" class="er attributeBoxOdd"></rect><text style="dominant-baseline: middle; font-size: 10.2px;" transform="translate(153.1640625,123)" y="0" x="0" id="text-entity-dboneighborhoods-d1faf266-4f56-5ac1-9656-6925b9344737-attr-5-comment" class="er entityLabel"></text><rect height="22" width="62.15625" y="134" x="0" class="er attributeBoxEven"></rect><text style="dominant-baseline: middle; font-size: 10.2px;" transform="translate(5,145)" y="0" x="0" id="text-entity-dboneighborhoods-d1faf266-4f56-5ac1-9656-6925b9344737-attr-6-type" class="er entityLabel">int</text><rect height="22" width="86.0078125" y="134" x="62.15625" class="er attributeBoxEven"></rect><text style="dominant-baseline: middle; font-size: 10.2px;" transform="translate(67.15625,145)" y="0" x="0" id="text-entity-dboneighborhoods-d1faf266-4f56-5ac1-9656-6925b9344737-attr-6-name" class="er entityLabel">walk_score</text><rect height="22" width="23.609375" y="134" x="148.1640625" class="er attributeBoxEven"></rect><text style="dominant-baseline: middle; font-size: 10.2px;" transform="translate(153.1640625,145)" y="0" x="0" id="text-entity-dboneighborhoods-d1faf266-4f56-5ac1-9656-6925b9344737-attr-6-comment" class="er entityLabel"></text></g><g transform="translate(20,397 )" id="entity-dboagents-a952a0f1-01ea-5232-9dd1-91a68fc692e7"><rect height="178" width="144.5390625" y="0" x="0" class="er entityBox"></rect><text style="dominant-baseline: middle; text-anchor: middle; font-size: 12px;" transform="translate(72.26953125,12)" y="0" x="0" id="text-entity-dboagents-a952a0f1-01ea-5232-9dd1-91a68fc692e7" class="er entityLabel">dbo.agents</text><rect height="22" width="62.15625" y="24" x="0" class="er attributeBoxOdd"></rect><text style="dominant-baseline: middle; font-size: 10.2px;" transform="translate(5,35)" y="0" x="0" id="text-entity-dboagents-a952a0f1-01ea-5232-9dd1-91a68fc692e7-attr-1-type" class="er entityLabel">varchar(10)</text><rect height="22" width="58.7734375" y="24" x="62.15625" class="er attributeBoxOdd"></rect><text style="dominant-baseline: middle; font-size: 10.2px;" transform="translate(67.15625,35)" y="0" x="0" id="text-entity-dboagents-a952a0f1-01ea-5232-9dd1-91a68fc692e7-attr-1-name" class="er entityLabel">agent_id</text><rect height="22" width="23.609375" y="24" x="120.9296875" class="er attributeBoxOdd"></rect><text style="dominant-baseline: middle; font-size: 10.2px;" transform="translate(125.9296875,35)" y="0" x="0" id="text-entity-dboagents-a952a0f1-01ea-5232-9dd1-91a68fc692e7-attr-1-comment" class="er entityLabel">PK</text><rect height="22" width="62.15625" y="46" x="0" class="er attributeBoxEven"></rect><text style="dominant-baseline: middle; font-size: 10.2px;" transform="translate(5,57)" y="0" x="0" id="text-entity-dboagents-a952a0f1-01ea-5232-9dd1-91a68fc692e7-attr-2-type" class="er entityLabel">varchar(50)</text><rect height="22" width="58.7734375" y="46" x="62.15625" class="er attributeBoxEven"></rect><text style="dominant-baseline: middle; font-size: 10.2px;" transform="translate(67.15625,57)" y="0" x="0" id="text-entity-dboagents-a952a0f1-01ea-5232-9dd1-91a68fc692e7-attr-2-name" class="er entityLabel">name</text><rect height="22" width="23.609375" y="46" x="120.9296875" class="er attributeBoxEven"></rect><text style="dominant-baseline: middle; font-size: 10.2px;" transform="translate(125.9296875,57)" y="0" x="0" id="text-entity-dboagents-a952a0f1-01ea-5232-9dd1-91a68fc692e7-attr-2-comment" class="er entityLabel"></text><rect height="22" width="62.15625" y="68" x="0" class="er attributeBoxOdd"></rect><text style="dominant-baseline: middle; font-size: 10.2px;" transform="translate(5,79)" y="0" x="0" id="text-entity-dboagents-a952a0f1-01ea-5232-9dd1-91a68fc692e7-attr-3-type" class="er entityLabel">varchar(20)</text><rect height="22" width="58.7734375" y="68" x="62.15625" class="er attributeBoxOdd"></rect><text style="dominant-baseline: middle; font-size: 10.2px;" transform="translate(67.15625,79)" y="0" x="0" id="text-entity-dboagents-a952a0f1-01ea-5232-9dd1-91a68fc692e7-attr-3-name" class="er entityLabel">phone</text><rect height="22" width="23.609375" y="68" x="120.9296875" class="er attributeBoxOdd"></rect><text style="dominant-baseline: middle; font-size: 10.2px;" transform="translate(125.9296875,79)" y="0" x="0" id="text-entity-dboagents-a952a0f1-01ea-5232-9dd1-91a68fc692e7-attr-3-comment" class="er entityLabel"></text><rect height="22" width="62.15625" y="90" x="0" class="er attributeBoxEven"></rect><text style="dominant-baseline: middle; font-size: 10.2px;" transform="translate(5,101)" y="0" x="0" id="text-entity-dboagents-a952a0f1-01ea-5232-9dd1-91a68fc692e7-attr-4-type" class="er entityLabel">varchar(50)</text><rect height="22" width="58.7734375" y="90" x="62.15625" class="er attributeBoxEven"></rect><text style="dominant-baseline: middle; font-size: 10.2px;" transform="translate(67.15625,101)" y="0" x="0" id="text-entity-dboagents-a952a0f1-01ea-5232-9dd1-91a68fc692e7-attr-4-name" class="er entityLabel">email</text><rect height="22" width="23.609375" y="90" x="120.9296875" class="er attributeBoxEven"></rect><text style="dominant-baseline: middle; font-size: 10.2px;" transform="translate(125.9296875,101)" y="0" x="0" id="text-entity-dboagents-a952a0f1-01ea-5232-9dd1-91a68fc692e7-attr-4-comment" class="er entityLabel"></text><rect height="22" width="62.15625" y="112" x="0" class="er attributeBoxOdd"></rect><text style="dominant-baseline: middle; font-size: 10.2px;" transform="translate(5,123)" y="0" x="0" id="text-entity-dboagents-a952a0f1-01ea-5232-9dd1-91a68fc692e7-attr-5-type" class="er entityLabel">varchar(20)</text><rect height="22" width="58.7734375" y="112" x="62.15625" class="er attributeBoxOdd"></rect><text style="dominant-baseline: middle; font-size: 10.2px;" transform="translate(67.15625,123)" y="0" x="0" id="text-entity-dboagents-a952a0f1-01ea-5232-9dd1-91a68fc692e7-attr-5-name" class="er entityLabel">license_no</text><rect height="22" width="23.609375" y="112" x="120.9296875" class="er attributeBoxOdd"></rect><text style="dominant-baseline: middle; font-size: 10.2px;" transform="translate(125.9296875,123)" y="0" x="0" id="text-entity-dboagents-a952a0f1-01ea-5232-9dd1-91a68fc692e7-attr-5-comment" class="er entityLabel"></text><rect height="22" width="62.15625" y="134" x="0" class="er attributeBoxEven"></rect><text style="dominant-baseline: middle; font-size: 10.2px;" transform="translate(5,145)" y="0" x="0" id="text-entity-dboagents-a952a0f1-01ea-5232-9dd1-91a68fc692e7-attr-6-type" class="er entityLabel">varchar(50)</text><rect height="22" width="58.7734375" y="134" x="62.15625" class="er attributeBoxEven"></rect><text style="dominant-baseline: middle; font-size: 10.2px;" transform="translate(67.15625,145)" y="0" x="0" id="text-entity-dboagents-a952a0f1-01ea-5232-9dd1-91a68fc692e7-attr-6-name" class="er entityLabel">office</text><rect height="22" width="23.609375" y="134" x="120.9296875" class="er attributeBoxEven"></rect><text style="dominant-baseline: middle; font-size: 10.2px;" transform="translate(125.9296875,145)" y="0" x="0" id="text-entity-dboagents-a952a0f1-01ea-5232-9dd1-91a68fc692e7-attr-6-comment" class="er entityLabel"></text><rect height="22" width="62.15625" y="156" x="0" class="er attributeBoxOdd"></rect><text style="dominant-baseline: middle; font-size: 10.2px;" transform="translate(5,167)" y="0" x="0" id="text-entity-dboagents-a952a0f1-01ea-5232-9dd1-91a68fc692e7-attr-7-type" class="er entityLabel">int</text><rect height="22" width="58.7734375" y="156" x="62.15625" class="er attributeBoxOdd"></rect><text style="dominant-baseline: middle; font-size: 10.2px;" transform="translate(67.15625,167)" y="0" x="0" id="text-entity-dboagents-a952a0f1-01ea-5232-9dd1-91a68fc692e7-attr-7-name" class="er entityLabel">years_exp</text><rect height="22" width="23.609375" y="156" x="120.9296875" class="er attributeBoxOdd"></rect><text style="dominant-baseline: middle; font-size: 10.2px;" transform="translate(125.9296875,167)" y="0" x="0" id="text-entity-dboagents-a952a0f1-01ea-5232-9dd1-91a68fc692e7-attr-7-comment" class="er entityLabel"></text></g><g transform="translate(264.5390625,298 )" id="entity-dbohouses-2f4a594e-7df7-5bb1-8a31-a945086a09cb"><rect height="376" width="177.4453125" y="0" x="0" class="er entityBox"></rect><text style="dominant-baseline: middle; text-anchor: middle; font-size: 12px;" transform="translate(88.72265625,12)" y="0" x="0" id="text-entity-dbohouses-2f4a594e-7df7-5bb1-8a31-a945086a09cb" class="er entityLabel">dbo.houses</text><rect height="22" width="67.828125" y="24" x="0" class="er attributeBoxOdd"></rect><text style="dominant-baseline: middle; font-size: 10.2px;" transform="translate(5,35)" y="0" x="0" id="text-entity-dbohouses-2f4a594e-7df7-5bb1-8a31-a945086a09cb-attr-1-type" class="er entityLabel">varchar(10)</text><rect height="22" width="86.0078125" y="24" x="67.828125" class="er attributeBoxOdd"></rect><text style="dominant-baseline: middle; font-size: 10.2px;" transform="translate(72.828125,35)" y="0" x="0" id="text-entity-dbohouses-2f4a594e-7df7-5bb1-8a31-a945086a09cb-attr-1-name" class="er entityLabel">house_id</text><rect height="22" width="23.609375" y="24" x="153.8359375" class="er attributeBoxOdd"></rect><text style="dominant-baseline: middle; font-size: 10.2px;" transform="translate(158.8359375,35)" y="0" x="0" id="text-entity-dbohouses-2f4a594e-7df7-5bb1-8a31-a945086a09cb-attr-1-comment" class="er entityLabel">PK</text><rect height="22" width="67.828125" y="46" x="0" class="er attributeBoxEven"></rect><text style="dominant-baseline: middle; font-size: 10.2px;" transform="translate(5,57)" y="0" x="0" id="text-entity-dbohouses-2f4a594e-7df7-5bb1-8a31-a945086a09cb-attr-2-type" class="er entityLabel">varchar(10)</text><rect height="22" width="86.0078125" y="46" x="67.828125" class="er attributeBoxEven"></rect><text style="dominant-baseline: middle; font-size: 10.2px;" transform="translate(72.828125,57)" y="0" x="0" id="text-entity-dbohouses-2f4a594e-7df7-5bb1-8a31-a945086a09cb-attr-2-name" class="er entityLabel">neighborhood_id</text><rect height="22" width="23.609375" y="46" x="153.8359375" class="er attributeBoxEven"></rect><text style="dominant-baseline: middle; font-size: 10.2px;" transform="translate(158.8359375,57)" y="0" x="0" id="text-entity-dbohouses-2f4a594e-7df7-5bb1-8a31-a945086a09cb-attr-2-comment" class="er entityLabel">FK</text><rect height="22" width="67.828125" y="68" x="0" class="er attributeBoxOdd"></rect><text style="dominant-baseline: middle; font-size: 10.2px;" transform="translate(5,79)" y="0" x="0" id="text-entity-dbohouses-2f4a594e-7df7-5bb1-8a31-a945086a09cb-attr-3-type" class="er entityLabel">varchar(100)</text><rect height="22" width="86.0078125" y="68" x="67.828125" class="er attributeBoxOdd"></rect><text style="dominant-baseline: middle; font-size: 10.2px;" transform="translate(72.828125,79)" y="0" x="0" id="text-entity-dbohouses-2f4a594e-7df7-5bb1-8a31-a945086a09cb-attr-3-name" class="er entityLabel">address</text><rect height="22" width="23.609375" y="68" x="153.8359375" class="er attributeBoxOdd"></rect><text style="dominant-baseline: middle; font-size: 10.2px;" transform="translate(158.8359375,79)" y="0" x="0" id="text-entity-dbohouses-2f4a594e-7df7-5bb1-8a31-a945086a09cb-attr-3-comment" class="er entityLabel"></text><rect height="22" width="67.828125" y="90" x="0" class="er attributeBoxEven"></rect><text style="dominant-baseline: middle; font-size: 10.2px;" transform="translate(5,101)" y="0" x="0" id="text-entity-dbohouses-2f4a594e-7df7-5bb1-8a31-a945086a09cb-attr-4-type" class="er entityLabel">varchar(50)</text><rect height="22" width="86.0078125" y="90" x="67.828125" class="er attributeBoxEven"></rect><text style="dominant-baseline: middle; font-size: 10.2px;" transform="translate(72.828125,101)" y="0" x="0" id="text-entity-dbohouses-2f4a594e-7df7-5bb1-8a31-a945086a09cb-attr-4-name" class="er entityLabel">city</text><rect height="22" width="23.609375" y="90" x="153.8359375" class="er attributeBoxEven"></rect><text style="dominant-baseline: middle; font-size: 10.2px;" transform="translate(158.8359375,101)" y="0" x="0" id="text-entity-dbohouses-2f4a594e-7df7-5bb1-8a31-a945086a09cb-attr-4-comment" class="er entityLabel"></text><rect height="22" width="67.828125" y="112" x="0" class="er attributeBoxOdd"></rect><text style="dominant-baseline: middle; font-size: 10.2px;" transform="translate(5,123)" y="0" x="0" id="text-entity-dbohouses-2f4a594e-7df7-5bb1-8a31-a945086a09cb-attr-5-type" class="er entityLabel">varchar(20)</text><rect height="22" width="86.0078125" y="112" x="67.828125" class="er attributeBoxOdd"></rect><text style="dominant-baseline: middle; font-size: 10.2px;" transform="translate(72.828125,123)" y="0" x="0" id="text-entity-dbohouses-2f4a594e-7df7-5bb1-8a31-a945086a09cb-attr-5-name" class="er entityLabel">state</text><rect height="22" width="23.609375" y="112" x="153.8359375" class="er attributeBoxOdd"></rect><text style="dominant-baseline: middle; font-size: 10.2px;" transform="translate(158.8359375,123)" y="0" x="0" id="text-entity-dbohouses-2f4a594e-7df7-5bb1-8a31-a945086a09cb-attr-5-comment" class="er entityLabel"></text><rect height="22" width="67.828125" y="134" x="0" class="er attributeBoxEven"></rect><text style="dominant-baseline: middle; font-size: 10.2px;" transform="translate(5,145)" y="0" x="0" id="text-entity-dbohouses-2f4a594e-7df7-5bb1-8a31-a945086a09cb-attr-6-type" class="er entityLabel">varchar(10)</text><rect height="22" width="86.0078125" y="134" x="67.828125" class="er attributeBoxEven"></rect><text style="dominant-baseline: middle; font-size: 10.2px;" transform="translate(72.828125,145)" y="0" x="0" id="text-entity-dbohouses-2f4a594e-7df7-5bb1-8a31-a945086a09cb-attr-6-name" class="er entityLabel">zip_code</text><rect height="22" width="23.609375" y="134" x="153.8359375" class="er attributeBoxEven"></rect><text style="dominant-baseline: middle; font-size: 10.2px;" transform="translate(158.8359375,145)" y="0" x="0" id="text-entity-dbohouses-2f4a594e-7df7-5bb1-8a31-a945086a09cb-attr-6-comment" class="er entityLabel"></text><rect height="22" width="67.828125" y="156" x="0" class="er attributeBoxOdd"></rect><text style="dominant-baseline: middle; font-size: 10.2px;" transform="translate(5,167)" y="0" x="0" id="text-entity-dbohouses-2f4a594e-7df7-5bb1-8a31-a945086a09cb-attr-7-type" class="er entityLabel">decimal</text><rect height="22" width="86.0078125" y="156" x="67.828125" class="er attributeBoxOdd"></rect><text style="dominant-baseline: middle; font-size: 10.2px;" transform="translate(72.828125,167)" y="0" x="0" id="text-entity-dbohouses-2f4a594e-7df7-5bb1-8a31-a945086a09cb-attr-7-name" class="er entityLabel">price</text><rect height="22" width="23.609375" y="156" x="153.8359375" class="er attributeBoxOdd"></rect><text style="dominant-baseline: middle; font-size: 10.2px;" transform="translate(158.8359375,167)" y="0" x="0" id="text-entity-dbohouses-2f4a594e-7df7-5bb1-8a31-a945086a09cb-attr-7-comment" class="er entityLabel"></text><rect height="22" width="67.828125" y="178" x="0" class="er attributeBoxEven"></rect><text style="dominant-baseline: middle; font-size: 10.2px;" transform="translate(5,189)" y="0" x="0" id="text-entity-dbohouses-2f4a594e-7df7-5bb1-8a31-a945086a09cb-attr-8-type" class="er entityLabel">int</text><rect height="22" width="86.0078125" y="178" x="67.828125" class="er attributeBoxEven"></rect><text style="dominant-baseline: middle; font-size: 10.2px;" transform="translate(72.828125,189)" y="0" x="0" id="text-entity-dbohouses-2f4a594e-7df7-5bb1-8a31-a945086a09cb-attr-8-name" class="er entityLabel">bedrooms</text><rect height="22" width="23.609375" y="178" x="153.8359375" class="er attributeBoxEven"></rect><text style="dominant-baseline: middle; font-size: 10.2px;" transform="translate(158.8359375,189)" y="0" x="0" id="text-entity-dbohouses-2f4a594e-7df7-5bb1-8a31-a945086a09cb-attr-8-comment" class="er entityLabel"></text><rect height="22" width="67.828125" y="200" x="0" class="er attributeBoxOdd"></rect><text style="dominant-baseline: middle; font-size: 10.2px;" transform="translate(5,211)" y="0" x="0" id="text-entity-dbohouses-2f4a594e-7df7-5bb1-8a31-a945086a09cb-attr-9-type" class="er entityLabel">decimal</text><rect height="22" width="86.0078125" y="200" x="67.828125" class="er attributeBoxOdd"></rect><text style="dominant-baseline: middle; font-size: 10.2px;" transform="translate(72.828125,211)" y="0" x="0" id="text-entity-dbohouses-2f4a594e-7df7-5bb1-8a31-a945086a09cb-attr-9-name" class="er entityLabel">bathrooms</text><rect height="22" width="23.609375" y="200" x="153.8359375" class="er attributeBoxOdd"></rect><text style="dominant-baseline: middle; font-size: 10.2px;" transform="translate(158.8359375,211)" y="0" x="0" id="text-entity-dbohouses-2f4a594e-7df7-5bb1-8a31-a945086a09cb-attr-9-comment" class="er entityLabel"></text><rect height="22" width="67.828125" y="222" x="0" class="er attributeBoxEven"></rect><text style="dominant-baseline: middle; font-size: 10.2px;" transform="translate(5,233)" y="0" x="0" id="text-entity-dbohouses-2f4a594e-7df7-5bb1-8a31-a945086a09cb-attr-10-type" class="er entityLabel">int</text><rect height="22" width="86.0078125" y="222" x="67.828125" class="er attributeBoxEven"></rect><text style="dominant-baseline: middle; font-size: 10.2px;" transform="translate(72.828125,233)" y="0" x="0" id="text-entity-dbohouses-2f4a594e-7df7-5bb1-8a31-a945086a09cb-attr-10-name" class="er entityLabel">sqft</text><rect height="22" width="23.609375" y="222" x="153.8359375" class="er attributeBoxEven"></rect><text style="dominant-baseline: middle; font-size: 10.2px;" transform="translate(158.8359375,233)" y="0" x="0" id="text-entity-dbohouses-2f4a594e-7df7-5bb1-8a31-a945086a09cb-attr-10-comment" class="er entityLabel"></text><rect height="22" width="67.828125" y="244" x="0" class="er attributeBoxOdd"></rect><text style="dominant-baseline: middle; font-size: 10.2px;" transform="translate(5,255)" y="0" x="0" id="text-entity-dbohouses-2f4a594e-7df7-5bb1-8a31-a945086a09cb-attr-11-type" class="er entityLabel">int</text><rect height="22" width="86.0078125" y="244" x="67.828125" class="er attributeBoxOdd"></rect><text style="dominant-baseline: middle; font-size: 10.2px;" transform="translate(72.828125,255)" y="0" x="0" id="text-entity-dbohouses-2f4a594e-7df7-5bb1-8a31-a945086a09cb-attr-11-name" class="er entityLabel">year_built</text><rect height="22" width="23.609375" y="244" x="153.8359375" class="er attributeBoxOdd"></rect><text style="dominant-baseline: middle; font-size: 10.2px;" transform="translate(158.8359375,255)" y="0" x="0" id="text-entity-dbohouses-2f4a594e-7df7-5bb1-8a31-a945086a09cb-attr-11-comment" class="er entityLabel"></text><rect height="22" width="67.828125" y="266" x="0" class="er attributeBoxEven"></rect><text style="dominant-baseline: middle; font-size: 10.2px;" transform="translate(5,277)" y="0" x="0" id="text-entity-dbohouses-2f4a594e-7df7-5bb1-8a31-a945086a09cb-attr-12-type" class="er entityLabel">decimal</text><rect height="22" width="86.0078125" y="266" x="67.828125" class="er attributeBoxEven"></rect><text style="dominant-baseline: middle; font-size: 10.2px;" transform="translate(72.828125,277)" y="0" x="0" id="text-entity-dbohouses-2f4a594e-7df7-5bb1-8a31-a945086a09cb-attr-12-name" class="er entityLabel">lot_size</text><rect height="22" width="23.609375" y="266" x="153.8359375" class="er attributeBoxEven"></rect><text style="dominant-baseline: middle; font-size: 10.2px;" transform="translate(158.8359375,277)" y="0" x="0" id="text-entity-dbohouses-2f4a594e-7df7-5bb1-8a31-a945086a09cb-attr-12-comment" class="er entityLabel"></text><rect height="22" width="67.828125" y="288" x="0" class="er attributeBoxOdd"></rect><text style="dominant-baseline: middle; font-size: 10.2px;" transform="translate(5,299)" y="0" x="0" id="text-entity-dbohouses-2f4a594e-7df7-5bb1-8a31-a945086a09cb-attr-13-type" class="er entityLabel">int</text><rect height="22" width="86.0078125" y="288" x="67.828125" class="er attributeBoxOdd"></rect><text style="dominant-baseline: middle; font-size: 10.2px;" transform="translate(72.828125,299)" y="0" x="0" id="text-entity-dbohouses-2f4a594e-7df7-5bb1-8a31-a945086a09cb-attr-13-name" class="er entityLabel">garage</text><rect height="22" width="23.609375" y="288" x="153.8359375" class="er attributeBoxOdd"></rect><text style="dominant-baseline: middle; font-size: 10.2px;" transform="translate(158.8359375,299)" y="0" x="0" id="text-entity-dbohouses-2f4a594e-7df7-5bb1-8a31-a945086a09cb-attr-13-comment" class="er entityLabel"></text><rect height="22" width="67.828125" y="310" x="0" class="er attributeBoxEven"></rect><text style="dominant-baseline: middle; font-size: 10.2px;" transform="translate(5,321)" y="0" x="0" id="text-entity-dbohouses-2f4a594e-7df7-5bb1-8a31-a945086a09cb-attr-14-type" class="er entityLabel">varchar(30)</text><rect height="22" width="86.0078125" y="310" x="67.828125" class="er attributeBoxEven"></rect><text style="dominant-baseline: middle; font-size: 10.2px;" transform="translate(72.828125,321)" y="0" x="0" id="text-entity-dbohouses-2f4a594e-7df7-5bb1-8a31-a945086a09cb-attr-14-name" class="er entityLabel">style</text><rect height="22" width="23.609375" y="310" x="153.8359375" class="er attributeBoxEven"></rect><text style="dominant-baseline: middle; font-size: 10.2px;" transform="translate(158.8359375,321)" y="0" x="0" id="text-entity-dbohouses-2f4a594e-7df7-5bb1-8a31-a945086a09cb-attr-14-comment" class="er entityLabel"></text><rect height="22" width="67.828125" y="332" x="0" class="er attributeBoxOdd"></rect><text style="dominant-baseline: middle; font-size: 10.2px;" transform="translate(5,343)" y="0" x="0" id="text-entity-dbohouses-2f4a594e-7df7-5bb1-8a31-a945086a09cb-attr-15-type" class="er entityLabel">decimal</text><rect height="22" width="86.0078125" y="332" x="67.828125" class="er attributeBoxOdd"></rect><text style="dominant-baseline: middle; font-size: 10.2px;" transform="translate(72.828125,343)" y="0" x="0" id="text-entity-dbohouses-2f4a594e-7df7-5bb1-8a31-a945086a09cb-attr-15-name" class="er entityLabel">hoa_fee</text><rect height="22" width="23.609375" y="332" x="153.8359375" class="er attributeBoxOdd"></rect><text style="dominant-baseline: middle; font-size: 10.2px;" transform="translate(158.8359375,343)" y="0" x="0" id="text-entity-dbohouses-2f4a594e-7df7-5bb1-8a31-a945086a09cb-attr-15-comment" class="er entityLabel"></text><rect height="22" width="67.828125" y="354" x="0" class="er attributeBoxEven"></rect><text style="dominant-baseline: middle; font-size: 10.2px;" transform="translate(5,365)" y="0" x="0" id="text-entity-dbohouses-2f4a594e-7df7-5bb1-8a31-a945086a09cb-attr-16-type" class="er entityLabel">varchar(15)</text><rect height="22" width="86.0078125" y="354" x="67.828125" class="er attributeBoxEven"></rect><text style="dominant-baseline: middle; font-size: 10.2px;" transform="translate(72.828125,365)" y="0" x="0" id="text-entity-dbohouses-2f4a594e-7df7-5bb1-8a31-a945086a09cb-attr-16-name" class="er entityLabel">status</text><rect height="22" width="23.609375" y="354" x="153.8359375" class="er attributeBoxEven"></rect><text style="dominant-baseline: middle; font-size: 10.2px;" transform="translate(158.8359375,365)" y="0" x="0" id="text-entity-dbohouses-2f4a594e-7df7-5bb1-8a31-a945086a09cb-attr-16-comment" class="er entityLabel"></text></g><g transform="translate(146.53125,20 )" id="entity-dbosales-91dffbce-1a03-5e7e-91e8-f8b91fdd5c29"><rect height="178" width="152.46875" y="0" x="0" class="er entityBox"></rect><text style="dominant-baseline: middle; text-anchor: middle; font-size: 12px;" transform="translate(76.234375,12)" y="0" x="0" id="text-entity-dbosales-91dffbce-1a03-5e7e-91e8-f8b91fdd5c29" class="er entityLabel">dbo.sales</text><rect height="22" width="62.15625" y="24" x="0" class="er attributeBoxOdd"></rect><text style="dominant-baseline: middle; font-size: 10.2px;" transform="translate(5,35)" y="0" x="0" id="text-entity-dbosales-91dffbce-1a03-5e7e-91e8-f8b91fdd5c29-attr-1-type" class="er entityLabel">varchar(10)</text><rect height="22" width="66.703125" y="24" x="62.15625" class="er attributeBoxOdd"></rect><text style="dominant-baseline: middle; font-size: 10.2px;" transform="translate(67.15625,35)" y="0" x="0" id="text-entity-dbosales-91dffbce-1a03-5e7e-91e8-f8b91fdd5c29-attr-1-name" class="er entityLabel">sale_id</text><rect height="22" width="23.609375" y="24" x="128.859375" class="er attributeBoxOdd"></rect><text style="dominant-baseline: middle; font-size: 10.2px;" transform="translate(133.859375,35)" y="0" x="0" id="text-entity-dbosales-91dffbce-1a03-5e7e-91e8-f8b91fdd5c29-attr-1-comment" class="er entityLabel">PK</text><rect height="22" width="62.15625" y="46" x="0" class="er attributeBoxEven"></rect><text style="dominant-baseline: middle; font-size: 10.2px;" transform="translate(5,57)" y="0" x="0" id="text-entity-dbosales-91dffbce-1a03-5e7e-91e8-f8b91fdd5c29-attr-2-type" class="er entityLabel">varchar(10)</text><rect height="22" width="66.703125" y="46" x="62.15625" class="er attributeBoxEven"></rect><text style="dominant-baseline: middle; font-size: 10.2px;" transform="translate(67.15625,57)" y="0" x="0" id="text-entity-dbosales-91dffbce-1a03-5e7e-91e8-f8b91fdd5c29-attr-2-name" class="er entityLabel">house_id</text><rect height="22" width="23.609375" y="46" x="128.859375" class="er attributeBoxEven"></rect><text style="dominant-baseline: middle; font-size: 10.2px;" transform="translate(133.859375,57)" y="0" x="0" id="text-entity-dbosales-91dffbce-1a03-5e7e-91e8-f8b91fdd5c29-attr-2-comment" class="er entityLabel">FK</text><rect height="22" width="62.15625" y="68" x="0" class="er attributeBoxOdd"></rect><text style="dominant-baseline: middle; font-size: 10.2px;" transform="translate(5,79)" y="0" x="0" id="text-entity-dbosales-91dffbce-1a03-5e7e-91e8-f8b91fdd5c29-attr-3-type" class="er entityLabel">varchar(10)</text><rect height="22" width="66.703125" y="68" x="62.15625" class="er attributeBoxOdd"></rect><text style="dominant-baseline: middle; font-size: 10.2px;" transform="translate(67.15625,79)" y="0" x="0" id="text-entity-dbosales-91dffbce-1a03-5e7e-91e8-f8b91fdd5c29-attr-3-name" class="er entityLabel">agent_id</text><rect height="22" width="23.609375" y="68" x="128.859375" class="er attributeBoxOdd"></rect><text style="dominant-baseline: middle; font-size: 10.2px;" transform="translate(133.859375,79)" y="0" x="0" id="text-entity-dbosales-91dffbce-1a03-5e7e-91e8-f8b91fdd5c29-attr-3-comment" class="er entityLabel">FK</text><rect height="22" width="62.15625" y="90" x="0" class="er attributeBoxEven"></rect><text style="dominant-baseline: middle; font-size: 10.2px;" transform="translate(5,101)" y="0" x="0" id="text-entity-dbosales-91dffbce-1a03-5e7e-91e8-f8b91fdd5c29-attr-4-type" class="er entityLabel">date</text><rect height="22" width="66.703125" y="90" x="62.15625" class="er attributeBoxEven"></rect><text style="dominant-baseline: middle; font-size: 10.2px;" transform="translate(67.15625,101)" y="0" x="0" id="text-entity-dbosales-91dffbce-1a03-5e7e-91e8-f8b91fdd5c29-attr-4-name" class="er entityLabel">sale_date</text><rect height="22" width="23.609375" y="90" x="128.859375" class="er attributeBoxEven"></rect><text style="dominant-baseline: middle; font-size: 10.2px;" transform="translate(133.859375,101)" y="0" x="0" id="text-entity-dbosales-91dffbce-1a03-5e7e-91e8-f8b91fdd5c29-attr-4-comment" class="er entityLabel"></text><rect height="22" width="62.15625" y="112" x="0" class="er attributeBoxOdd"></rect><text style="dominant-baseline: middle; font-size: 10.2px;" transform="translate(5,123)" y="0" x="0" id="text-entity-dbosales-91dffbce-1a03-5e7e-91e8-f8b91fdd5c29-attr-5-type" class="er entityLabel">decimal</text><rect height="22" width="66.703125" y="112" x="62.15625" class="er attributeBoxOdd"></rect><text style="dominant-baseline: middle; font-size: 10.2px;" transform="translate(67.15625,123)" y="0" x="0" id="text-entity-dbosales-91dffbce-1a03-5e7e-91e8-f8b91fdd5c29-attr-5-name" class="er entityLabel">sale_price</text><rect height="22" width="23.609375" y="112" x="128.859375" class="er attributeBoxOdd"></rect><text style="dominant-baseline: middle; font-size: 10.2px;" transform="translate(133.859375,123)" y="0" x="0" id="text-entity-dbosales-91dffbce-1a03-5e7e-91e8-f8b91fdd5c29-attr-5-comment" class="er entityLabel"></text><rect height="22" width="62.15625" y="134" x="0" class="er attributeBoxEven"></rect><text style="dominant-baseline: middle; font-size: 10.2px;" transform="translate(5,145)" y="0" x="0" id="text-entity-dbosales-91dffbce-1a03-5e7e-91e8-f8b91fdd5c29-attr-6-type" class="er entityLabel">varchar(50)</text><rect height="22" width="66.703125" y="134" x="62.15625" class="er attributeBoxEven"></rect><text style="dominant-baseline: middle; font-size: 10.2px;" transform="translate(67.15625,145)" y="0" x="0" id="text-entity-dbosales-91dffbce-1a03-5e7e-91e8-f8b91fdd5c29-attr-6-name" class="er entityLabel">buyer_name</text><rect height="22" width="23.609375" y="134" x="128.859375" class="er attributeBoxEven"></rect><text style="dominant-baseline: middle; font-size: 10.2px;" transform="translate(133.859375,145)" y="0" x="0" id="text-entity-dbosales-91dffbce-1a03-5e7e-91e8-f8b91fdd5c29-attr-6-comment" class="er entityLabel"></text><rect height="22" width="62.15625" y="156" x="0" class="er attributeBoxOdd"></rect><text style="dominant-baseline: middle; font-size: 10.2px;" transform="translate(5,167)" y="0" x="0" id="text-entity-dbosales-91dffbce-1a03-5e7e-91e8-f8b91fdd5c29-attr-7-type" class="er entityLabel">varchar(50)</text><rect height="22" width="66.703125" y="156" x="62.15625" class="er attributeBoxOdd"></rect><text style="dominant-baseline: middle; font-size: 10.2px;" transform="translate(67.15625,167)" y="0" x="0" id="text-entity-dbosales-91dffbce-1a03-5e7e-91e8-f8b91fdd5c29-attr-7-name" class="er entityLabel">buyer_email</text><rect height="22" width="23.609375" y="156" x="128.859375" class="er attributeBoxOdd"></rect><text style="dominant-baseline: middle; font-size: 10.2px;" transform="translate(133.859375,167)" y="0" x="0" id="text-entity-dbosales-91dffbce-1a03-5e7e-91e8-f8b91fdd5c29-attr-7-comment" class="er entityLabel"></text></g><rect height="14" width="89.4140625" y="717" x="308.5549621582031" class="er relationshipLabelBox"></rect><text style="text-anchor: middle; dominant-baseline: middle; font-size: 12px;" y="724" x="353.2619934082031" id="rel1" class="er relationshipLabel">neighborhood_id</text><rect height="14" width="48.7109375" y="231.0545196533203" x="314.9217834472656" class="er relationshipLabelBox"></rect><text style="text-anchor: middle; dominant-baseline: middle; font-size: 12px;" y="238.0545196533203" x="339.2772521972656" id="rel2" class="er relationshipLabel">house_id</text><rect height="14" width="46.046875" y="279.4530334472656" x="73.72001647949219" class="er relationshipLabelBox"></rect><text style="text-anchor: middle; dominant-baseline: middle; font-size: 12px;" y="286.4530334472656" x="96.74345397949219" id="rel3" class="er relationshipLabel">agent_id</text></svg>